<?xml version="1.0" encoding="utf-8"?>
<!-- Generator: Adobe Illustrator 20.1.0, SVG Export Plug-In . SVG Version: 6.00 Build 0)  -->
<svg version="1.1" xmlns="http://www.w3.org/2000/svg" xmlns:xlink="http://www.w3.org/1999/xlink" x="0px" y="0px"
	 viewBox="0 0 222.1 61.5" style="enable-background:new 0 0 222.1 61.5;" xml:space="preserve">
<style type="text/css">
	.st0{fill:#D71F29;}
	.st1{fill:#079247;}
	.st2{fill:#3B5EAB;}
	.st3{fill:#FFFFFF;}
	.st4{fill:none;}
</style>
<g id="fonds">
</g>
<g id="logos">
	<g>
		<g>
			<path d="M66.4,42.1V17.2H77c1.4,0,2.7,0.4,3.9,1c1.2,0.7,2.2,1.6,2.9,2.8c0.7,1.2,1.1,2.5,1.1,4c0,1.5-0.5,2.9-1.4,4.2
				s-2.1,2.2-3.5,2.8l5.8,10l-4.7,0l-5.3-9.4h-5.7v9.4H66.4z M70.3,29.1h7.1c1,0,1.9-0.4,2.6-1.1c0.7-0.8,1-1.7,1-2.8
				c0-1.2-0.4-2.2-1.3-3c-0.9-0.8-2-1.2-3.3-1.2h-6.1V29.1z"/>
			<path d="M91.1,42.1V17.2h16.2v3.7H95v6.9h10.7v3.7H95v10.6H91.1z"/>
			<path d="M112.6,42.1V17.2h16.2v3.7h-12.3v6.9h10.7v3.7h-10.7v10.6H112.6z"/>
			<path d="M134,42.1V17.2h3.8v21.2h11.7v3.7H134z"/>
			<path d="M160.8,42.5c-1.5,0-2.9-0.4-4.2-1.3c-1.3-0.9-2.3-2-3-3.5c-0.8-1.5-1.1-3.1-1.1-5c0-1.9,0.4-3.5,1.2-5
				c0.8-1.5,1.8-2.6,3.1-3.4c1.3-0.8,2.8-1.2,4.4-1.2c1.4,0,2.6,0.3,3.7,0.9s1.9,1.4,2.5,2.3v-2.8h3.7v18.7h-3.7v-2.9
				c-0.6,0.9-1.5,1.7-2.7,2.3C163.5,42.2,162.2,42.5,160.8,42.5z M161.8,39.1c1.1,0,2.1-0.3,3-0.8c0.9-0.5,1.5-1.3,2-2.3
				c0.5-1,0.7-2.1,0.7-3.3c0-1.2-0.2-2.3-0.7-3.2c-0.5-0.9-1.2-1.7-2-2.2c-0.9-0.5-1.8-0.8-3-0.8c-1.1,0-2.1,0.3-2.9,0.8
				c-0.8,0.5-1.5,1.3-2,2.2c-0.5,0.9-0.7,2-0.7,3.2c0,1.2,0.2,2.3,0.7,3.3c0.5,1,1.2,1.7,2,2.3C159.7,38.8,160.7,39.1,161.8,39.1z"
				/>
			<path d="M186,42.5c-1.2,0-2.4-0.3-3.5-0.8c-1.1-0.6-2-1.2-2.7-2V42h-3.7V15.8h3.7v10.3c0.6-0.8,1.4-1.5,2.5-2.2
				c1.1-0.6,2.3-0.9,3.5-0.9c1.7,0,3.2,0.4,4.5,1.2c1.3,0.8,2.3,2,3.1,3.4c0.8,1.5,1.1,3.1,1.1,5c0,1.9-0.4,3.5-1.1,5
				c-0.7,1.5-1.8,2.6-3.1,3.5C189.1,42.1,187.6,42.5,186,42.5z M185.4,39.2c1.1,0,2.1-0.3,2.9-0.8c0.9-0.6,1.5-1.3,2-2.3
				c0.5-1,0.7-2.1,0.7-3.3c0-1.2-0.2-2.3-0.7-3.3c-0.5-1-1.2-1.7-2-2.3c-0.9-0.5-1.8-0.8-3-0.8c-1.1,0-2.1,0.3-3,0.8
				c-0.9,0.5-1.5,1.3-2,2.3c-0.5,1-0.7,2-0.7,3.3c0,1.2,0.2,2.3,0.7,3.3c0.5,1,1.2,1.7,2,2.3C183.3,38.9,184.3,39.2,185.4,39.2z"/>
			<path d="M204.8,42.5c-1.6,0-3-0.3-4.2-0.8c-1.3-0.5-2.3-1.4-3.1-2.4l2.5-2.1c0.7,0.8,1.5,1.4,2.3,1.8c0.8,0.4,1.8,0.6,2.9,0.6
				c0.9,0,1.6-0.2,2.2-0.6c0.6-0.4,0.8-1,0.8-1.7c0-0.6-0.2-1.1-0.7-1.5c-0.5-0.4-1.5-0.7-3.1-1.2c-1.4-0.4-2.5-0.8-3.4-1.2
				c-0.9-0.5-1.6-1-2-1.5c-0.7-0.9-1-1.9-1-3.2c0-1,0.3-2,0.9-2.8c0.6-0.8,1.4-1.4,2.4-1.9c1-0.5,2.1-0.7,3.4-0.7
				c1.3,0,2.6,0.3,3.9,0.8c1.2,0.5,2.2,1.3,3,2.2l-2.1,2.3c-0.7-0.7-1.5-1.2-2.3-1.7c-0.8-0.4-1.6-0.6-2.3-0.6c-1,0-1.8,0.2-2.4,0.6
				c-0.6,0.4-0.8,0.9-0.8,1.7c0,0.6,0.3,1.2,0.8,1.6c0.5,0.4,1.6,0.8,3.2,1.2c1.2,0.3,2.2,0.6,2.9,1c0.8,0.4,1.4,0.8,1.8,1.3
				c0.5,0.5,0.8,1,1,1.6c0.2,0.6,0.3,1.3,0.3,2c0,1.1-0.3,2-0.9,2.9c-0.6,0.8-1.4,1.5-2.4,2C207.2,42.3,206.1,42.5,204.8,42.5z"/>
		</g>
		<g id="logo_6_">
			<g id="rouge_6_">
				<path d="M46.2,35.3L28.1,15.8l1.1-1.1c2.5-2.5,5.9-3.9,9.5-3.9H47c3,0,5.8,1.3,7.7,3.5c1.8,2.1,2.7,4.7,2.5,7.4
					c-0.2,2.7-1.4,5.2-3.5,7L46.2,35.3z M32.8,16l13.7,14.8l5.1-4.5c2.9-2.5,3.2-6.9,0.7-9.8C50.9,14.9,49,14,47,14h-8.3
					C36.5,14,34.5,14.7,32.8,16z"/>
			</g>
			<g id="vert_6_">
				<path d="M46.3,48.3C46.3,48.3,46.3,48.3,46.3,48.3c-1.3,0-2.6-0.4-3.7-1.1l-8.8-5.4l12.7-11.1l5.1,5.5c2.2,2.3,2.5,5.9,0.8,8.6
					C51.1,47,48.8,48.3,46.3,48.3z M39.3,41.3l5,3.1c0.6,0.4,1.3,0.6,2,0.6c1.4,0,2.6-0.7,3.3-1.8c0.9-1.5,0.7-3.4-0.5-4.6l-3-3.2
					L39.3,41.3z"/>
			</g>
			<g id="bleu_6_">
				<path d="M23,51.8c-1.1,0-2.2-0.2-3.3-0.5c-2.9-0.9-5.3-2.8-6.8-5.5c-1.4-2.7-1.8-5.8-0.9-8.7l6.2-20.7c0.4-1.3,1.1-2.4,2-3.3
					c1.4-1.3,3.1-1.9,5-1.9c2,0,4,0.9,5.4,2.3l2.1,2.3L31.5,17c-1.2,1.2-2.1,2.7-2.6,4.4L26,31c-0.3,1.1,0.1,2.3,1.1,2.9l12.1,7.4
					L30.4,49C28.4,50.8,25.7,51.8,23,51.8z M25.2,14.6c-1,0-2,0.4-2.7,1.1c-0.5,0.5-0.9,1.1-1.1,1.8l-6.2,20.7
					c-0.6,2.1-0.4,4.3,0.6,6.2c1,1.9,2.7,3.3,4.8,3.9c2.6,0.8,5.6,0.1,7.6-1.6l5.4-4.7l-8.3-5.1c-2.2-1.4-3.3-4.1-2.5-6.6l2.9-9.7
					c0.5-1.7,1.3-3.2,2.4-4.6C27.4,15,26.3,14.6,25.2,14.6z"/>
			</g>
			<g id="blanc_5_">
				<path class="st4" d="M30.4,15.8c-1.4,1.4-2.4,3.1-3,5.1l-2.9,9.7c-0.5,1.8,0.2,3.8,1.8,4.8l10.2,6.3l9.8-8.5L30.4,15.8z"/>
			</g>
		</g>
	</g>
</g>
</svg>
