<?xml version="1.0" encoding="utf-8"?>
<!-- Generator: Adobe Illustrator 20.1.0, SVG Export Plug-In . SVG Version: 6.00 Build 0)  -->
<svg version="1.1" xmlns="http://www.w3.org/2000/svg" xmlns:xlink="http://www.w3.org/1999/xlink" x="0px" y="0px"
	 viewBox="0 0 222.1 61.5" style="enable-background:new 0 0 222.1 61.5;" xml:space="preserve">
<style type="text/css">
	.st0{fill:#D71F29;}
	.st1{fill:#079247;}
	.st2{fill:#3B5EAB;}
	.st3{fill:#FFFFFF;}
	.st4{fill:none;}
</style>
<g id="fonds">
</g>
<g id="logos">
	<g>
		<g>
			<path d="M65.2,42.2V17.1h10.7c1.4,0,2.8,0.4,4,1.1c1.2,0.7,2.2,1.7,2.9,2.9c0.7,1.2,1.1,2.6,1.1,4.1c0,1.5-0.5,2.9-1.4,4.2
				c-0.9,1.3-2.1,2.2-3.5,2.8l5.8,10.1l-4.7,0l-5.3-9.4h-5.7v9.4H65.2z M69.1,29.1h7.2c1.1,0,1.9-0.4,2.6-1.1c0.7-0.8,1-1.7,1-2.8
				c0-1.2-0.4-2.3-1.3-3c-0.9-0.8-2-1.2-3.3-1.2h-6.2V29.1z"/>
			<path d="M90.1,42.2V17.1h16.3v3.7H94v7h10.8v3.7H94v10.7H90.1z"/>
			<path d="M111.7,42.2V17.1H128v3.7h-12.4v7h10.8v3.7h-10.8v10.7H111.7z"/>
			<path d="M133.3,42.2V17.1h3.9v21.4H149v3.7H133.3z"/>
			<path d="M160.4,42.6c-1.6,0-3-0.4-4.2-1.3c-1.3-0.9-2.3-2-3.1-3.5c-0.8-1.5-1.2-3.2-1.2-5c0-1.9,0.4-3.6,1.2-5
				c0.8-1.5,1.8-2.6,3.2-3.5c1.3-0.8,2.8-1.3,4.5-1.3c1.4,0,2.7,0.3,3.7,0.9c1.1,0.6,1.9,1.4,2.5,2.4v-2.9h3.7v18.8H167v-2.9
				c-0.6,0.9-1.6,1.7-2.7,2.3C163.1,42.3,161.8,42.6,160.4,42.6z M161.4,39.2c1.1,0,2.1-0.3,3-0.8c0.9-0.6,1.5-1.3,2-2.3
				c0.5-1,0.7-2.1,0.7-3.3c0-1.2-0.2-2.3-0.7-3.3c-0.5-1-1.2-1.7-2-2.3c-0.9-0.5-1.9-0.8-3-0.8c-1.1,0-2.1,0.3-2.9,0.8
				c-0.8,0.6-1.5,1.3-2,2.3c-0.5,1-0.7,2-0.7,3.3c0,1.2,0.2,2.3,0.7,3.3c0.5,1,1.2,1.7,2,2.3C159.3,38.9,160.3,39.2,161.4,39.2z"/>
			<path d="M185.8,42.6c-1.2,0-2.4-0.3-3.5-0.8s-2-1.2-2.7-2v2.4h-3.7V15.7h3.7v10.4c0.6-0.8,1.4-1.6,2.6-2.2
				c1.1-0.6,2.3-0.9,3.5-0.9c1.7,0,3.2,0.4,4.5,1.3c1.3,0.8,2.4,2,3.1,3.5c0.8,1.5,1.1,3.2,1.1,5c0,1.9-0.4,3.6-1.1,5.1
				c-0.8,1.5-1.8,2.6-3.1,3.5C188.9,42.2,187.4,42.6,185.8,42.6z M185.2,39.2c1.1,0,2.1-0.3,2.9-0.8c0.9-0.6,1.5-1.3,2-2.3
				c0.5-1,0.8-2.1,0.8-3.3c0-1.2-0.2-2.3-0.7-3.3c-0.5-1-1.2-1.7-2-2.3c-0.9-0.6-1.9-0.8-3-0.8s-2.1,0.3-3,0.8
				c-0.9,0.6-1.5,1.3-2,2.3c-0.5,1-0.8,2.1-0.8,3.3c0,1.2,0.2,2.3,0.8,3.3c0.5,1,1.2,1.7,2,2.3C183.1,38.9,184,39.2,185.2,39.2z"/>
			<path d="M204.8,42.6c-1.6,0-3-0.3-4.3-0.8c-1.3-0.5-2.3-1.4-3.2-2.4l2.5-2.2c0.7,0.8,1.5,1.4,2.3,1.8c0.8,0.4,1.8,0.6,2.9,0.6
				c0.9,0,1.6-0.2,2.2-0.6c0.6-0.4,0.8-1,0.8-1.8c0-0.6-0.2-1.1-0.7-1.5c-0.5-0.4-1.5-0.8-3.1-1.2c-1.4-0.4-2.5-0.8-3.4-1.2
				c-0.9-0.5-1.6-1-2-1.5c-0.7-0.9-1-1.9-1-3.3c0-1.1,0.3-2,0.9-2.8c0.6-0.8,1.4-1.5,2.4-1.9c1-0.5,2.2-0.7,3.4-0.7
				c1.3,0,2.6,0.3,3.9,0.8c1.3,0.5,2.3,1.3,3,2.2l-2.1,2.3c-0.7-0.7-1.5-1.2-2.3-1.7c-0.8-0.4-1.6-0.6-2.3-0.6c-1,0-1.8,0.2-2.4,0.6
				c-0.6,0.4-0.8,0.9-0.8,1.7c0,0.6,0.3,1.2,0.8,1.6c0.5,0.4,1.6,0.8,3.2,1.2c1.2,0.3,2.2,0.7,3,1c0.8,0.4,1.4,0.8,1.8,1.3
				c0.5,0.5,0.8,1,1,1.6c0.2,0.6,0.3,1.3,0.3,2c0,1.1-0.3,2-0.9,2.9c-0.6,0.8-1.4,1.5-2.5,2C207.2,42.4,206,42.6,204.8,42.6z"/>
		</g>
		<g id="logo_5_">
			<path id="rouge_5_" d="M28.9,15.7c2.2-2.2,5.2-3.5,8.4-3.5h8.3c2.5,0,4.9,1.1,6.6,3c3.1,3.6,2.8,9.1-0.9,12.3L44.9,33L28.9,15.7z
				"/>
			<path id="vert_5_" d="M35,41.7l7,4.3c2.6,1.6,6,0.8,7.6-1.8c1.3-2.1,1-4.9-0.7-6.7L44.9,33L35,41.7z"/>
			<path id="bleu_5_" d="M27.8,47.9c-2.5,2.2-6,3-9.3,2c-5.2-1.5-8.2-7-6.6-12.2l6.2-20.8c0.3-1,0.8-1.9,1.6-2.6
				c2.3-2.1,5.9-2,8.1,0.3l1,1.1c-1.4,1.4-2.5,3.1-3.1,5.1l-2.9,9.8c-0.5,1.8,0.2,3.8,1.8,4.8L35,41.7L27.8,47.9z"/>
			<path id="blanc_4_" class="st4" d="M28.9,15.7c-1.4,1.4-2.5,3.1-3.1,5.1l-2.9,9.8c-0.5,1.8,0.2,3.8,1.8,4.8L35,41.7l9.9-8.6
				L28.9,15.7z"/>
		</g>
	</g>
</g>
</svg>
