<?xml version="1.0" encoding="utf-8"?>
<!-- Generator: Adobe Illustrator 20.1.0, SVG Export Plug-In . SVG Version: 6.00 Build 0)  -->
<svg version="1.1" xmlns="http://www.w3.org/2000/svg" xmlns:xlink="http://www.w3.org/1999/xlink" x="0px" y="0px"
	 viewBox="0 0 257.7 257.7" style="enable-background:new 0 0 257.7 257.7;" xml:space="preserve">
<style type="text/css">
	.st0{fill:#D71F29;}
	.st1{fill:#079247;}
	.st2{fill:#3B5EAB;}
	.st3{fill:#FFFFFF;}
	.st4{fill:none;}
</style>
<g id="fonds">
</g>
<g id="logos">
	<g>
		<g id="logo_8_">
			<g id="rouge_8_">
				<path class="st3" d="M178.7,114.9L101.1,31l3-3c10.9-10.8,25.4-16.7,40.7-16.7h37.3c12.5,0,24.4,5.4,32.6,14.9
					c7.6,8.7,11.3,19.9,10.5,31.4c-0.8,11.5-6,22-14.8,29.6L178.7,114.9z M113.3,31.4l66,71.4l25.4-22.1c7-6.1,11.1-14.5,11.8-23.7
					c0.6-9.2-2.3-18.1-8.4-25.1c-6.6-7.5-16.1-11.9-26.1-11.9h-37.3C133.2,20,122.1,24,113.3,31.4z"/>
			</g>
			<g id="vert_8_">
				<path class="st3" d="M179,174.6C179,174.6,179,174.6,179,174.6c-5.4,0-10.7-1.5-15.3-4.3L127.4,148l52-45.2l21.1,22.8
					c8.9,9.6,10.3,24,3.5,35.1C198.5,169.4,189.2,174.6,179,174.6z M142,146.8l26.3,16.1c3.2,2,6.9,3,10.7,3h0
					c7.2,0,13.7-3.7,17.5-9.8c4.8-7.8,3.8-17.9-2.4-24.7l-15.4-16.6L142,146.8z"/>
			</g>
			<g id="bleu_8_">
				<path class="st3" d="M73.7,190.5c-4.7,0-9.3-0.7-13.8-2c-12.4-3.7-22.6-12-28.7-23.3c-6.1-11.4-7.5-24.4-3.8-36.8L55.2,35
					c1.5-5.1,4.4-9.8,8.3-13.4c5.5-5.1,12.7-7.9,20.3-7.9c8.3,0,16.3,3.5,21.9,9.6l7.4,8l-3,3c-5.9,5.8-10.2,13-12.6,21l-13,43.7
					c-1.9,6.3,0.7,13.1,6.3,16.5l51.1,31.4l-36.6,31.8C96.6,186.2,85.4,190.5,73.7,190.5z M83.8,22.4c-5.3,0-10.4,2-14.4,5.6
					c-2.8,2.6-4.8,5.9-5.9,9.5l-27.8,93.3c-3,10.1-1.9,20.9,3.1,30.2c5,9.3,13.4,16.1,23.5,19.1c3.7,1.1,7.5,1.7,11.3,1.7
					c9.6,0,18.8-3.5,26-9.7l27.7-24.1l-41-25.2c-8.9-5.5-13.1-16.4-10.1-26.4l13-43.7c2.4-8,6.5-15.4,11.9-21.6l-1.8-2
					C95.4,24.8,89.7,22.4,83.8,22.4z"/>
			</g>
			<g id="blanc_7_">
				<path class="st3" d="M135.1,152.7l-48.8-30c-8.9-5.5-13.1-16.4-10.1-26.4l13-43.7c2.8-9.3,7.9-17.8,14.8-24.7l3.2-3.2l78,84.3
					L135.1,152.7z M107.1,37.5c-4.3,5.2-7.6,11.2-9.5,17.7l-13,43.7c-1.9,6.3,0.7,13.1,6.3,16.5l43.3,26.6l38.5-33.5L107.1,37.5z"/>
			</g>
		</g>
		<g>
			<path class="st3" d="M25.3,247v-34.3H40c2,0,3.8,0.5,5.4,1.4c1.7,1,3,2.3,3.9,3.9c1,1.7,1.5,3.5,1.5,5.6c0,2.1-0.6,4-1.9,5.8
				c-1.2,1.8-2.8,3.1-4.8,3.9l8,13.8l-6.4,0l-7.3-12.9h-7.8V247H25.3z M30.6,229h9.8c1.4,0,2.6-0.5,3.6-1.6c0.9-1,1.4-2.3,1.4-3.9
				c0-1.7-0.6-3.1-1.8-4.2c-1.2-1.1-2.7-1.6-4.5-1.6h-8.4V229z"/>
			<path class="st3" d="M59.4,247v-34.3h22.3v5.1h-17v9.5h14.8v5.1H64.7V247H59.4z"/>
			<path class="st3" d="M88.9,247v-34.3h22.3v5.1h-17v9.5H109v5.1H94.2V247H88.9z"/>
			<path class="st3" d="M118.4,247v-34.3h5.3v29.2h16.1v5.1H118.4z"/>
			<path class="st3" d="M155.4,247.5c-2.1,0-4.1-0.6-5.8-1.8c-1.7-1.2-3.1-2.8-4.2-4.8c-1-2-1.6-4.3-1.6-6.9c0-2.6,0.5-4.9,1.6-6.9
				c1.1-2,2.5-3.6,4.3-4.7c1.8-1.1,3.8-1.7,6.1-1.7c1.9,0,3.6,0.4,5.1,1.2c1.5,0.8,2.6,1.9,3.4,3.2v-3.9h5.1V247h-5.1v-4
				c-0.9,1.2-2.1,2.3-3.8,3.2C159,247,157.3,247.5,155.4,247.5z M156.8,242.8c1.5,0,2.9-0.4,4.1-1.1c1.2-0.8,2.1-1.8,2.8-3.1
				c0.7-1.3,1-2.8,1-4.5c0-1.7-0.3-3.2-1-4.5c-0.7-1.3-1.6-2.3-2.8-3.1c-1.2-0.8-2.5-1.1-4.1-1.1c-1.5,0-2.8,0.4-4,1.1
				c-1.2,0.8-2.1,1.8-2.7,3.1c-0.7,1.3-1,2.8-1,4.5c0,1.7,0.3,3.2,1,4.5c0.7,1.3,1.6,2.4,2.7,3.1
				C153.9,242.4,155.3,242.8,156.8,242.8z"/>
			<path class="st3" d="M190.1,247.5c-1.7,0-3.3-0.4-4.8-1.2c-1.5-0.8-2.8-1.7-3.7-2.7v3.2h-5v-36.1h5v14.2c0.8-1.1,2-2.1,3.5-3
				c1.6-0.8,3.2-1.2,4.8-1.2c2.3,0,4.4,0.6,6.2,1.7c1.8,1.1,3.2,2.7,4.3,4.7c1,2,1.6,4.3,1.6,6.9s-0.5,4.9-1.5,6.9
				c-1,2-2.4,3.6-4.2,4.8C194.4,246.9,192.4,247.5,190.1,247.5z M189.3,242.9c1.5,0,2.8-0.4,4-1.2s2.1-1.8,2.8-3.1
				c0.7-1.3,1-2.8,1-4.5c0-1.7-0.3-3.2-1-4.5c-0.7-1.3-1.6-2.4-2.8-3.1c-1.2-0.8-2.5-1.1-4.1-1.1c-1.5,0-2.9,0.4-4.1,1.1
				c-1.2,0.8-2.1,1.8-2.8,3.1c-0.7,1.3-1,2.8-1,4.5c0,1.7,0.3,3.2,1,4.5c0.7,1.3,1.6,2.4,2.8,3.1
				C186.4,242.5,187.7,242.9,189.3,242.9z"/>
			<path class="st3" d="M216,247.5c-2.2,0-4.1-0.4-5.8-1.1c-1.7-0.8-3.2-1.9-4.3-3.3l3.4-2.9c1,1.1,2,2,3.2,2.5
				c1.2,0.5,2.5,0.8,3.9,0.8c1.2,0,2.2-0.3,3-0.9c0.8-0.6,1.2-1.4,1.2-2.4c0-0.8-0.3-1.5-0.9-2.1c-0.6-0.5-2-1-4.3-1.6
				c-1.9-0.5-3.4-1-4.7-1.7c-1.2-0.6-2.1-1.3-2.8-2.1c-0.9-1.2-1.4-2.7-1.4-4.5c0-1.4,0.4-2.7,1.2-3.8c0.8-1.1,1.9-2,3.3-2.6
				c1.4-0.6,2.9-1,4.7-1c1.8,0,3.6,0.4,5.3,1.1c1.7,0.7,3.1,1.7,4.1,3l-2.9,3.2c-0.9-0.9-2-1.7-3.2-2.3c-1.2-0.6-2.2-0.9-3.2-0.9
				c-1.4,0-2.5,0.3-3.3,0.8c-0.8,0.5-1.2,1.3-1.2,2.3c0,0.9,0.4,1.6,1.1,2.2c0.7,0.6,2.1,1.1,4.4,1.7c1.6,0.4,3,0.9,4,1.4
				c1.1,0.5,1.9,1.1,2.5,1.7c0.7,0.6,1.1,1.3,1.4,2.2c0.3,0.8,0.4,1.7,0.4,2.7c0,1.5-0.4,2.8-1.2,3.9c-0.8,1.2-2,2.1-3.4,2.7
				C219.3,247.1,217.8,247.5,216,247.5z"/>
		</g>
	</g>
</g>
</svg>
