<?xml version="1.0" encoding="utf-8"?>
<!-- Generator: Adobe Illustrator 27.6.1, SVG Export Plug-In . SVG Version: 6.00 Build 0)  -->
<svg version="1.1" id="Calque_1" xmlns="http://www.w3.org/2000/svg" xmlns:xlink="http://www.w3.org/1999/xlink" x="0px" y="0px"
	 viewBox="0 0 1190.55 841.89" style="enable-background:new 0 0 1190.55 841.89;" xml:space="preserve">
<style type="text/css">
	.st0{fill:#020203;}
	.st1{font-family:'Lexend-Medium';}
	.st2{font-size:37.752px;}
</style>
<g>
	<g>
		<g>
			<g id="logo_00000090988464844738194720000008458020835925039772_">
				<g id="rouge_00000054985196447148820960000016021598543562882979_">
					<path class="st0" d="M314.2,374.17l-53.68-58.01l2.07-2.05c7.55-7.46,17.55-11.56,28.16-11.56h25.82
						c8.66,0,16.89,3.75,22.57,10.28c5.24,6.03,7.82,13.74,7.27,21.71c-0.55,7.97-4.18,15.25-10.21,20.49L314.2,374.17z
						 M268.98,316.44l45.68,49.36l17.6-15.31c4.82-4.19,7.71-10,8.16-16.37c0.44-6.37-1.62-12.53-5.81-17.34
						c-4.54-5.22-11.11-8.21-18.03-8.21h-25.82C282.72,308.57,275.09,311.35,268.98,316.44z"/>
				</g>
				<g id="vert_00000178910589237591449000000006781653193642530219_">
					<path class="st0" d="M314.41,415.52L314.41,415.52c-3.73,0-7.38-1.03-10.56-2.99l-25.15-15.45l35.96-31.27l14.6,15.78
						c6.13,6.62,7.11,16.62,2.39,24.3C327.94,411.92,321.49,415.52,314.41,415.52z M288.83,396.24L307,407.4
						c2.24,1.38,4.8,2.1,7.41,2.1h0c4.98,0,9.51-2.53,12.11-6.76c3.31-5.4,2.63-12.42-1.68-17.07l-10.64-11.5L288.83,396.24z"/>
				</g>
				<g id="bleu_00000147195373244633476710000004960141143749855910_">
					<path class="st0" d="M241.58,426.46c-3.23,0-6.45-0.47-9.55-1.39c-8.56-2.55-15.61-8.28-19.85-16.13
						c-4.25-7.85-5.18-16.89-2.63-25.45l19.24-64.55c1.05-3.55,3.05-6.75,5.77-9.26c3.83-3.54,8.81-5.5,14.03-5.5
						c5.74,0,11.27,2.42,15.17,6.63l5.14,5.55l-2.08,2.05c-4.06,4.01-7.07,9.02-8.7,14.5l-9,30.2c-1.3,4.35,0.5,9.05,4.37,11.43
						l35.34,21.71l-25.31,22.01C257.44,423.55,249.65,426.46,241.58,426.46z M248.59,310.19c-3.7,0-7.23,1.38-9.94,3.9
						c-1.93,1.78-3.34,4.05-4.09,6.57l-19.24,64.55c-2.09,7.02-1.33,14.43,2.16,20.87c3.48,6.44,9.26,11.14,16.28,13.23
						c2.54,0.76,5.17,1.14,7.83,1.14c6.61,0,13-2.39,17.99-6.73l19.13-16.64l-28.36-17.42c-6.19-3.8-9.06-11.32-6.99-18.28l9-30.2
						c1.64-5.51,4.47-10.62,8.24-14.93l-1.25-1.35C256.58,311.9,252.66,310.19,248.59,310.19z"/>
				</g>
				<g id="blanc_00000003799420900685529550000000285101642258208930_">
					<path class="st0" d="M284.07,400.38l-33.73-20.72c-6.19-3.8-9.06-11.32-6.99-18.28l9-30.2c1.92-6.44,5.46-12.34,10.24-17.06
						l2.21-2.18l53.94,58.29L284.07,400.38z M264.71,320.69c-3,3.56-5.26,7.73-6.59,12.21l-9,30.2c-1.3,4.35,0.5,9.05,4.37,11.43
						l29.97,18.41l26.66-23.18L264.71,320.69z"/>
				</g>
			</g>
		</g>
	</g>
	<g>
		<text transform="matrix(1 0 0 1 360.4766 334.8486)"><tspan x="0" y="0" class="st0 st1 st2">Réseau</tspan><tspan x="0" y="37.09" class="st0 st1 st2">Français</tspan></text>
		<text transform="matrix(1 0 0 1 346.4072 408.6729)" class="st0 st1 st2">des Fablabs</text>
	</g>
</g>
<g>
	<g>
		<g>
			<g id="logo_00000172435971406407466800000001136411800229890434_">
				<g id="rouge_00000015317019312120536610000000590860653387988152_">
					<path class="st0" d="M318.73,558.62l-53.68-58.01l2.07-2.05c7.55-7.46,17.55-11.56,28.16-11.56h25.82
						c8.66,0,16.89,3.75,22.57,10.28c5.24,6.03,7.82,13.74,7.27,21.71c-0.55,7.97-4.18,15.25-10.21,20.49L318.73,558.62z
						 M273.5,500.9l45.68,49.36l17.6-15.31c4.82-4.19,7.71-10,8.16-16.37c0.44-6.37-1.62-12.53-5.81-17.34
						c-4.54-5.22-11.11-8.21-18.03-8.21h-25.82C287.24,493.03,279.61,495.8,273.5,500.9z"/>
				</g>
				<g id="vert_00000085929036889683799490000012393768021040196795_">
					<path class="st0" d="M318.93,599.97L318.93,599.97c-3.73,0-7.38-1.03-10.56-2.99l-25.15-15.45l35.96-31.27l14.6,15.78
						c6.13,6.62,7.11,16.62,2.39,24.3C332.46,596.37,326.02,599.97,318.93,599.97z M293.36,580.69l18.16,11.16
						c2.24,1.38,4.8,2.1,7.41,2.1h0c4.98,0,9.51-2.53,12.11-6.76c3.31-5.4,2.63-12.42-1.68-17.07l-10.64-11.5L293.36,580.69z"/>
				</g>
				<g id="bleu_00000012455888063041910440000017963069405220603047_">
					<path class="st0" d="M246.11,610.91c-3.23,0-6.45-0.47-9.55-1.39c-8.56-2.55-15.61-8.28-19.85-16.13
						c-4.25-7.85-5.18-16.89-2.63-25.45l19.24-64.55c1.05-3.55,3.05-6.75,5.77-9.26c3.83-3.54,8.81-5.5,14.03-5.5
						c5.74,0,11.27,2.42,15.17,6.63l5.14,5.55l-2.08,2.05c-4.06,4.01-7.07,9.02-8.7,14.5l-9,30.2c-1.3,4.35,0.5,9.05,4.37,11.43
						l35.34,21.71l-25.31,22.01C261.96,608,254.17,610.91,246.11,610.91z M253.11,494.64c-3.7,0-7.23,1.38-9.94,3.9
						c-1.93,1.78-3.34,4.05-4.09,6.57l-19.24,64.55c-2.09,7.02-1.33,14.43,2.16,20.87c3.48,6.44,9.26,11.14,16.28,13.23
						c2.54,0.76,5.17,1.14,7.83,1.14c6.61,0,13-2.39,17.99-6.73l19.13-16.64l-28.36-17.42c-6.19-3.8-9.06-11.32-6.99-18.28l9-30.2
						c1.64-5.51,4.47-10.62,8.24-14.93l-1.25-1.35C261.1,496.36,257.18,494.64,253.11,494.64z"/>
				</g>
				<g id="blanc_00000178912683846621915050000011273553451732463791_">
					<path class="st0" d="M288.6,584.83l-33.73-20.72c-6.19-3.8-9.06-11.32-6.99-18.28l9-30.2c1.92-6.44,5.46-12.34,10.24-17.06
						l2.21-2.18l53.94,58.29L288.6,584.83z M269.24,505.14c-3,3.56-5.26,7.73-6.59,12.21l-9,30.2c-1.3,4.35,0.5,9.05,4.37,11.43
						l29.97,18.41l26.66-23.18L269.24,505.14z"/>
				</g>
			</g>
		</g>
	</g>
	<g>
		<text transform="matrix(1 0 0 1 365 519.2998)"><tspan x="0" y="0" class="st0 st1 st2">Réseau</tspan><tspan x="0" y="37.09" class="st0 st1 st2">Français</tspan></text>
		<text transform="matrix(1 0 0 1 350.9307 593.124)" class="st0 st1 st2">des Fablabs</text>
	</g>
</g>
<path d="M194.12,337.19c0-6.15-4.99-11.14-11.14-11.14c-4.77,0-8.83,3-10.41,7.22l-22.54,1.03c-1.33-4.66-5.61-8.07-10.7-8.07
	c-6.15,0-11.14,4.99-11.14,11.14c0,1.46,0.29,2.84,0.8,4.12l-37.83,32.24l11.62-39.66c5.46-0.72,9.68-5.38,9.68-11.03
	c0-6.15-4.99-11.14-11.14-11.14c-6.15,0-11.14,4.99-11.14,11.14c0,0.48,0.04,0.96,0.1,1.43l-17.06,5.85
	c-2.04-2.59-5.2-4.27-8.75-4.27c-6.15,0-11.14,4.99-11.14,11.14c0,6.15,4.99,11.14,11.14,11.14s11.14-4.99,11.14-11.14
	c0-0.05-0.01-0.09-0.01-0.14l17.86-6.13c0.68,0.68,1.45,1.26,2.29,1.74L83.57,374.2c-0.17-0.01-0.34-0.03-0.51-0.03
	c-6.15,0-11.14,4.99-11.14,11.14c0,6.15,4.99,11.14,11.14,11.14s11.14-4.99,11.14-11.14c0-1.46-0.29-2.84-0.8-4.12l39.65-33.78
	l-5.69,22.1c-5.76,0.43-10.31,5.22-10.31,11.1c0,6.15,4.99,11.14,11.14,11.14c2.53,0,4.86-0.86,6.73-2.28l15.36,13.18
	c-0.45,1.21-0.71,2.52-0.71,3.89c0,6.15,4.99,11.14,11.14,11.14c6.15,0,11.14-4.99,11.14-11.14c0-3.63-1.75-6.85-4.44-8.88
	l15.77-49.33C189.24,348.21,194.12,343.27,194.12,337.19z M154.8,397.1l-15.87-13.61c0.25-0.92,0.39-1.89,0.39-2.89
	c0-3.9-2.01-7.33-5.05-9.32l5.88-22.82c4.34-0.32,7.98-3.12,9.52-7l22.65-1.04c0.7,2.31,2.14,4.3,4.04,5.71l-15.75,49.26
	C158.48,395.41,156.49,396.04,154.8,397.1z"/>
<path d="M179.03,584.92l-16.78-80.59c3.28-1.94,5.49-5.5,5.49-9.59c0-6.15-4.99-11.14-11.14-11.14c-5.71,0-10.41,4.3-11.06,9.84
	l-8.36,1.78c-1.94-3.26-5.49-5.45-9.56-5.45c-4.72,0-8.74,2.94-10.37,7.08l-46.42-2.14c-1.34-4.65-5.62-8.05-10.7-8.05
	c-6.15,0-11.14,4.99-11.14,11.14c0,4.19,2.32,7.84,5.74,9.74l-11.7,64.26c-5.38,0.79-9.51,5.41-9.51,11.01
	c0,6.15,4.99,11.14,11.14,11.14c6.15,0,11.14-4.99,11.14-11.14c0-1.18-0.19-2.31-0.53-3.38l20.34-14.99
	c1.48,0.73,3.15,1.15,4.92,1.15c1.8,0,3.5-0.44,5-1.2l16,11.55c-0.32,1.04-0.49,2.14-0.49,3.28c0,6.15,4.99,11.14,11.14,11.14
	c3.91,0,7.34-2.02,9.33-5.07l45.07,11.51c0.44,5.75,5.23,10.29,11.1,10.29c6.15,0,11.14-4.99,11.14-11.14
	C188.82,590.28,184.55,585.59,179.03,584.92z M50.08,573.08l11.31-62.13l11.88,35.09c-2.36,2.04-3.86,5.05-3.86,8.42
	c0,1.75,0.41,3.39,1.13,4.86l-19.49,14.36C50.74,573.47,50.42,573.26,50.08,573.08z M148.54,502.41l-28.1,53.46l8.66-43.92
	c5.03-0.66,9-4.68,9.59-9.74l8.36-1.78C147.47,501.14,147.97,501.81,148.54,502.41z M118.09,506.64l-32.27,38.01
	c-1.57-0.85-3.37-1.33-5.28-1.33c-0.22,0-0.43,0.02-0.64,0.03l-12.55-37.07c1.39-1.18,2.48-2.7,3.16-4.43l46.42,2.14
	C117.2,504.94,117.59,505.82,118.09,506.64z M90.71,549.93l30.76-36.24l-10.75,54.51c-1.84,0.24-3.54,0.93-4.99,1.96l-15.14-10.93
	c0.69-1.45,1.09-3.06,1.09-4.78C91.68,552.85,91.33,551.32,90.71,549.93z M120.25,571.57l34.61-65.84c0.13,0.02,0.26,0.04,0.39,0.06
	l16.78,80.59c-1.48,0.88-2.75,2.08-3.69,3.52l-45.07-11.51C123.08,575.75,121.97,573.37,120.25,571.57z"/>
<g>
	<path d="M102.68,726.73c0,17.2,13.95,31.15,31.15,31.15c17.2,0,31.15-13.95,31.15-31.15c0-17.2-13.95-31.15-31.15-31.15
		C116.62,695.58,102.68,709.52,102.68,726.73z M133.82,702.72c13.24,0,24,10.77,24,24c0,13.24-10.77,24-24,24
		c-13.24,0-24-10.77-24-24C109.82,713.49,120.59,702.72,133.82,702.72z"/>
	<path d="M113.47,664.39l-74.09,69.75l18.57,19.73l74.09-69.75L113.47,664.39z M49.48,734.44l63.68-59.95l8.78,9.33l-63.68,59.95
		L49.48,734.44z"/>
	<path d="M60.45,762.68l1.42,27.06l101.61-5.32l-1.42-27.06L60.45,762.68z M68.63,782.23l-0.67-12.79l87.34-4.58l0.67,12.79
		L68.63,782.23z"/>
</g>
<g>
	<g>
		<g>
			<g id="logo_00000002353039419969186820000007408290948855372983_">
				<g id="rouge_00000079451535341357600340000000444511806460291494_">
					<path class="st0" d="M302.58,743.64l-53.68-58.01l2.07-2.05c7.55-7.46,17.55-11.56,28.16-11.56h25.82
						c8.66,0,16.89,3.75,22.57,10.28c5.24,6.03,7.82,13.74,7.27,21.71c-0.55,7.97-4.18,15.25-10.21,20.49L302.58,743.64z
						 M257.36,685.91l45.68,49.36l17.6-15.31c4.82-4.19,7.71-10,8.16-16.37c0.44-6.37-1.62-12.53-5.81-17.34
						c-4.54-5.22-11.11-8.21-18.03-8.21h-25.82C271.1,678.04,263.47,680.81,257.36,685.91z"/>
				</g>
				<g id="vert_00000175315395394484008840000006610075709079311018_">
					<path class="st0" d="M302.79,784.98L302.79,784.98c-3.73,0-7.38-1.03-10.56-2.99l-25.15-15.45l35.96-31.27l14.6,15.78
						c6.13,6.62,7.11,16.62,2.39,24.3C316.32,781.38,309.87,784.98,302.79,784.98z M277.21,765.71l18.16,11.16
						c2.24,1.38,4.8,2.1,7.41,2.1h0c4.98,0,9.51-2.53,12.11-6.76c3.31-5.4,2.63-12.42-1.68-17.07l-10.64-11.5L277.21,765.71z"/>
				</g>
				<g id="bleu_00000132080680302781673030000009587745842870593964_">
					<path class="st0" d="M229.96,795.93c-3.23,0-6.45-0.47-9.55-1.39c-8.56-2.55-15.61-8.28-19.85-16.13
						c-4.25-7.85-5.18-16.89-2.63-25.45l19.24-64.55c1.05-3.55,3.05-6.75,5.77-9.26c3.83-3.54,8.81-5.5,14.03-5.5
						c5.74,0,11.27,2.42,15.17,6.63l5.14,5.55l-2.08,2.05c-4.06,4.01-7.07,9.02-8.7,14.5l-9,30.2c-1.3,4.35,0.5,9.05,4.37,11.43
						l35.34,21.71l-25.31,22.01C245.82,793.01,238.02,795.93,229.96,795.93z M236.97,679.66c-3.7,0-7.23,1.38-9.94,3.9
						c-1.93,1.78-3.34,4.05-4.09,6.57l-19.24,64.55c-2.09,7.02-1.33,14.43,2.16,20.87c3.48,6.44,9.26,11.14,16.28,13.23
						c2.54,0.76,5.17,1.14,7.83,1.14c6.61,0,13-2.39,17.99-6.73l19.13-16.64l-28.36-17.42c-6.19-3.8-9.06-11.32-6.99-18.28l9-30.2
						c1.64-5.51,4.47-10.62,8.24-14.93l-1.25-1.35C244.96,681.37,241.04,679.66,236.97,679.66z"/>
				</g>
				<g id="blanc_00000055674817077754050950000000429330235166544561_">
					<path class="st0" d="M272.45,769.85l-33.73-20.72c-6.19-3.8-9.06-11.32-6.99-18.28l9-30.2c1.92-6.44,5.46-12.34,10.24-17.06
						l2.21-2.18l53.94,58.29L272.45,769.85z M253.09,690.15c-3,3.56-5.26,7.73-6.59,12.21l-9,30.2c-1.3,4.35,0.5,9.05,4.37,11.43
						l29.97,18.41l26.66-23.18L253.09,690.15z"/>
				</g>
			</g>
		</g>
	</g>
	<g>
		<text transform="matrix(1 0 0 1 348.8555 704.3145)"><tspan x="0" y="0" class="st0 st1 st2">Réseau</tspan><tspan x="0" y="37.09" class="st0 st1 st2">Français</tspan></text>
		<text transform="matrix(1 0 0 1 334.7861 778.1387)" class="st0 st1 st2">des Fablabs</text>
	</g>
</g>
<g>
	<path d="M199.27,76.66c0-6.15-4.99-11.14-11.14-11.14c-1.4,0-2.74,0.27-3.98,0.74c-5.45-4.87-12.52-7.61-19.92-7.61h-25.82
		c-6.27,0-12.33,1.45-17.8,4.16c-1.97-1.75-4.55-2.83-7.4-2.83c-2.79,0-5.33,1.03-7.28,2.72c-2.96-1.57-6.28-2.44-9.69-2.44
		c-5.22,0-10.2,1.95-14.03,5.5c-2.72,2.52-4.71,5.72-5.77,9.26l-19.24,64.55c-2,6.71-1.85,13.71,0.36,20.21
		c-1.98,2.01-3.21,4.77-3.21,7.82c0,6.15,4.99,11.14,11.14,11.14c2.06,0,3.97-0.57,5.63-1.54c2.63,1.69,5.5,3.03,8.58,3.95
		c3.1,0.92,6.31,1.39,9.55,1.39c8.06,0,15.85-2.91,21.94-8.21l14.39-12.52c1.76,1.17,3.87,1.85,6.14,1.85c2.8,0,5.34-1.04,7.3-2.74
		l12.5,7.68c3.18,1.96,6.84,2.99,10.56,2.99h0c1.1,0,2.18-0.1,3.25-0.27c2.03,2.76,5.29,4.56,8.97,4.56
		c6.15,0,11.14-4.99,11.14-11.14c0-3.33-1.47-6.31-3.79-8.35c1.66-6.52,0.01-13.63-4.72-18.74l-5.41-5.85
		c1.22-1.79,1.94-3.95,1.94-6.27c0-1.61-0.35-3.14-0.96-4.52l11.39-9.91c6.03-5.24,9.65-12.52,10.21-20.49
		c0.11-1.53,0.06-3.04-0.06-4.55C197.17,84.14,199.27,80.65,199.27,76.66z M105.84,88.83c0.17-0.57,0.36-1.13,0.56-1.69
		c0.07-0.21,0.16-0.41,0.24-0.61c0.16-0.41,0.32-0.83,0.5-1.23c0.1-0.22,0.19-0.44,0.29-0.66c0.18-0.39,0.37-0.78,0.56-1.17
		c0.1-0.21,0.21-0.41,0.31-0.62c0.23-0.44,0.47-0.86,0.72-1.29c0.02-0.03,0.03-0.06,0.05-0.09c1.28,0.51,2.68,0.81,4.14,0.81
		c1.28,0,2.5-0.23,3.64-0.62l35.68,38.56c-0.88,1.59-1.38,3.42-1.38,5.36c0,1.8,0.44,3.49,1.2,5l-14.57,12.67
		c-1.75-1.15-3.84-1.82-6.09-1.82c-3.04,0-5.79,1.22-7.8,3.2l-18.92-11.62c1.44-1.88,2.3-4.22,2.3-6.76
		c0-5.53-4.04-10.11-9.32-10.98L105.79,89C105.8,88.94,105.82,88.89,105.84,88.83z M107.23,169.82c-4.99,4.34-11.38,6.73-17.99,6.73
		c-2.65,0-5.28-0.38-7.83-1.14c-2.15-0.64-4.16-1.55-6.04-2.65c0.8-1.54,1.26-3.28,1.26-5.13c0-6.15-4.99-11.14-11.14-11.14
		c-0.88,0-1.74,0.11-2.56,0.31c-1.47-5.02-1.49-10.35,0.04-15.48l19.24-64.55c0.75-2.51,2.16-4.78,4.09-6.57
		c2.72-2.51,6.25-3.9,9.94-3.9c2.22,0,4.39,0.53,6.36,1.47c-0.34,1.06-0.52,2.19-0.52,3.36c0,2.48,0.82,4.77,2.2,6.62
		c-0.02,0.03-0.04,0.07-0.06,0.1c-0.14,0.24-0.28,0.48-0.42,0.72c-0.26,0.45-0.51,0.89-0.75,1.35c-0.13,0.25-0.26,0.5-0.39,0.76
		c-0.23,0.46-0.46,0.93-0.67,1.41c-0.11,0.25-0.23,0.49-0.33,0.74c-0.22,0.52-0.43,1.04-0.63,1.57c-0.08,0.21-0.17,0.42-0.25,0.63
		c-0.27,0.74-0.52,1.49-0.75,2.25l-8.61,28.87c-3.78,1.78-6.4,5.61-6.4,10.07c0,6.15,4.99,11.14,11.14,11.14
		c1.23,0,2.41-0.21,3.52-0.58l21.25,13.05c-0.22,0.87-0.35,1.78-0.35,2.71c0,1.7,0.39,3.3,1.07,4.74L107.23,169.82z M176.06,153.79
		c-0.58-0.09-1.16-0.15-1.77-0.15c-6.15,0-11.14,4.99-11.14,11.14c0,0.26,0.02,0.51,0.04,0.76c-0.37,0.03-0.74,0.07-1.12,0.07h0
		c-2.61,0-5.17-0.73-7.41-2.1l-12.33-7.58c0.34-1.06,0.52-2.2,0.52-3.37c0-1.72-0.4-3.33-1.09-4.79l14.67-12.76
		c1.71,1.07,3.72,1.69,5.88,1.69c1.64,0,3.18-0.36,4.58-0.99l5.61,6.07C175.55,145.06,176.77,149.54,176.06,153.79z M188.07,90.23
		c-0.44,6.37-3.34,12.18-8.16,16.37l-11.28,9.81c-1.8-1.25-3.98-1.98-6.33-1.98c-2.02,0-3.9,0.54-5.54,1.48l-0.47-0.5l-34.45-37.23
		c1.57-1.92,2.51-4.37,2.51-7.04c0-1.12-0.17-2.19-0.47-3.21c4.49-2.12,9.43-3.25,14.53-3.25h25.82c5.5,0,10.77,1.92,14.98,5.32
		c-1.39,1.86-2.23,4.16-2.23,6.66c0,6.15,4.98,11.13,11.12,11.14C188.14,88.6,188.13,89.42,188.07,90.23z"/>
</g>
<g>
	<path class="st0" d="M358.42,60.04c-4.95,0-9.13,3.23-10.59,7.69c-3.45,0.03-7.49,0.07-11.72,0.09c-1.43-4.51-5.64-7.78-10.62-7.78
		c-4.98,0-9.19,3.27-10.62,7.77c-4.18-0.04-7.46-0.1-9.73-0.2c-4.87-0.22-8.77,1.02-11.62,3.62c-0.32-0.03-0.63-0.05-0.96-0.05
		c-6.15,0-11.14,4.99-11.14,11.14c0,6.15,4.99,11.14,11.14,11.14c6.15,0,11.14-4.99,11.14-11.14c0-2.75-1-5.27-2.66-7.21
		c1.09-0.29,2.34-0.42,3.8-0.36c2.38,0.1,5.8,0.17,10.18,0.21c1.15,3.17,3.69,5.67,6.89,6.76l0,53.42
		c-3.98,1.7-6.77,5.65-6.77,10.25c0,6.15,4.99,11.14,11.14,11.14c6.15,0,11.14-4.99,11.14-11.14c0-5.19-3.56-9.54-8.36-10.77l0-52.9
		c3.2-1.08,5.75-3.58,6.89-6.76c4.32-0.02,8.45-0.06,11.96-0.09c1.52,4.33,5.64,7.45,10.5,7.45c6.15,0,11.14-4.99,11.14-11.14
		C369.55,65.03,364.57,60.04,358.42,60.04z"/>
	<path class="st0" d="M343.55,160.53c-6.15,0-11.14,4.99-11.14,11.14c0,0.04,0.01,0.08,0.01,0.13c-7.74,1.9-14.46,1.37-20.05-1.62
		c-12.19-6.52-15.79-22.87-16.23-25.11v-24.24c4.4-1.49,7.57-5.64,7.57-10.54c0-6.15-4.99-11.14-11.14-11.14
		c-6.15,0-11.14,4.99-11.14,11.14c0,4.9,3.17,9.05,7.57,10.54v24.57l0.05,0.58c0.15,0.89,3.78,21.81,19.91,30.47
		c4.5,2.42,9.47,3.62,14.88,3.62c3.48,0,7.14-0.52,10.97-1.51c2.04,2.58,5.19,4.25,8.74,4.25c6.15,0,11.14-4.99,11.14-11.14
		C354.69,165.51,349.7,160.53,343.55,160.53z"/>
</g>
</svg>
